# xmcd
#
# Track frame offsets:
#	150
#	17209
#	37836
#	55382
#	74339
#	91807
#	112712
#	133932
#	147093
#	168570
#	181012
#	198236
#	226091
#	243512
#	263390
#	282798
#
# Disc length: 3944 seconds
#
# Revision: 1
# Processed by: cddbd v1.5.2PL0 Copyright (c) Steve Scherf et al.
# Submitted via: audiograbber 1.83.01
#
DISCID=ce0f6610
DTITLE=AUDIO - AUDIOphile Pearls Vol.22_2017-10
DYEAR=2017
DGENRE=Audiophile
TTITLE0=Jaimi Faulkner - Back Road
TTITLE1=Bruce Cockburn - Café Society
TTITLE2=Walter Trout featuring Kenny Wayne Shepherd - Gonna Hurt Like Hell
TTITLE3=Chris Rea - Road Songs For Lovers
TTITLE4=Steve Winwood - Empty Pages [radio edit]
TTITLE5=Eloy - The Prophecy
TTITLE6=Reg Meuross - England Green and England Grey
TTITLE7=David Rawlings - Cumberland Gap
TTITLE8=Emily Haines and The Soft Skeleton - Fatal Gift [video edit]
TTITLE9=Charles Pasi - All The Way
TTITLE10=Lizz Wright - All The Way Here
TTITLE11=Johannes Brahms - Trio für Klavier, Violine und Horn Es-Dur Op. 40, IV
TTITLE11=Finale. Allegro con brio [F
TTITLE12=Cécile Chaminade - Klaviertrio Op. 11, III. Presto Leggiero [Trio Parn
TTITLE12=assus]
TTITLE13=Maurice Ravel - Sonatine, I. Modéré [Evgeny Koroliov - Klavier]
TTITLE14=Johann Kaspar Mertz - Sechs Schubert'sche Lieder, IV. Ständchen [Frank
TTITLE14=Bungarten - Gitarre]
TTITLE15=Johann Kaspar Mertz - Sechs Schubert'sche Lieder, V. Die Post [Frank B
TTITLE15=ungarten - Gitarre]
EXTD=AUDIO test-magazine 2017-10
EXTT0=
EXTT1=
EXTT2=
EXTT3=
EXTT4=
EXTT5=
EXTT6=
EXTT7=
EXTT8=
EXTT9=
EXTT10=
EXTT11=
EXTT12=
EXTT13=
EXTT14=
EXTT15=
PLAYORDER=
